{"title":"Iron Sky [2012] Limited 720p BRRip H264 AC3 - CODY","uid":7313664,"size":1472817937,"categoryP":"video","categoryS":"hd___movies","magnet":"?xt=urn:btih:9b1df7b3a1efabf641492ebfe7a81572c27bcce3&amp;dn=Iron+Sky+%5B2012%5D+Limited+720p+BRRip+H264+AC3+-+CODY&amp;tr=udp%3A%2F%2Ftracker.openbittorrent.com%3A80&amp;tr=udp%3A%2F%2Fopen.demonii.com%3A1337&amp;tr=udp%3A%2F%2Ftracker.coppersurfer.tk%3A6969&amp;tr=udp%3A%2F%2Fexodus.desync.com%3A6969","seeders":0,"leechers":1,"uploader":"CODYBOSS1969","files":5,"time":1338417035,"description":"General\nComplete name                            : Iron Sky [2012] Limited 720p BRRip H264 AC3 - CODY.mp4\nFormat                                   : MPEG-4\nFormat profile                           : Base Media\nCodec ID                                 : isom\nFile size                                : 1.37 GiB\nDuration                                 : 1h 32mn\nOverall bit rate mode                    : Variable\nOverall bit rate                         : 2 122 Kbps\nEncoded date                             : UTC 2012-05-30 19:28:26\n\nVideo\nID                                       : 1\nFormat                                   : AVC\nFormat/Info                              : Advanced Video Codec\nFormat profile                           : &lt;a class=&quot;__cf_email__&quot; href=&quot;/cdn-cgi/l/email-protection&quot; data-cfemail=&quot;3c74555b547c7008120d&quot;&gt;[email&amp;#160;protected]&lt;/a&gt;&lt;script cf-hash='f9e31' type=&quot;text/javascript&quot;&gt;\n/* &lt;![CDATA[ */!function(){try{var t=&quot;currentScript&quot;in document?document.currentScript:function(){for(var t=document.getElementsByTagName(&quot;script&quot;),e=t.length;e--;)if(t[e].getAttribute(&quot;cf-hash&quot;))return t[e]}();if(t&amp;&amp;t.previousSibling){var e,r,n,i,c=t.previousSibling,a=c.getAttribute(&quot;data-cfemail&quot;);if(a){for(e=&quot;&quot;,r=parseInt(a.substr(0,2),16),n=2;a.length-n;n+=2)i=parseInt(a.substr(n,2),16)^r,e+=String.fromCharCode(i);e=document.createTextNode(e),c.parentNode.replaceChild(e,c)}}}catch(u){}}();/* ]]&gt; */&lt;/script&gt;\nFormat settings, CABAC                   : Yes\nFormat settings, ReFrames                : 5 frames\nCodec ID                                 : avc1\nCodec ID/Info                            : Advanced Video Coding\nDuration                                 : 1h 32mn\nBit rate mode                            : Variable\nBit rate                                 : 1 670 Kbps\nMaximum bit rate                         : 20.0 Mbps\nWidth                                    : 1 280 pixels\nHeight                                   : 544 pixels\nDisplay aspect ratio                     : 2.35:1\nFrame rate mode                          : Constant\nFrame rate                               : 24.000 fps\nColor space                              : YUV\nChroma subsampling                       : 4:2:0\nBit depth                                : 8 bits\nScan type                                : Progressive\nBits/(Pixel*Frame)                       : 0.100\nStream size                              : 1.08 GiB (79%)\nWriting library                          : x264 core 119 r2106 07efeb4\nEncoding settings                        : rc=2pass\n\nAudio\nID                                       : 2\nFormat                                   : AC-3\nFormat/Info                              : Audio Coding 3\nMode extension                           : CM (complete main)\nCodec ID                                 : ac-3\nDuration                                 : 1h 32mn\nBit rate mode                            : Constant\nBit rate                                 : 448 Kbps\nChannel(s)                               : 6 channels\nChannel positions                        : Front: L C R, Side: L R, LFE\nSampling rate                            : 48.0 KHz\nBit depth                                : 16 bits\nCompression mode                         : Lossy\nStream size                              : 297 MiB (21%)\n\n\n\n\nIMDB link:                                &lt;a href=&quot; http://www.imdb.com/title/tt1034314/&quot; rel=&quot;nofollow&quot; target=&quot;_NEW&quot;&gt; http://www.imdb.com/title/tt1034314/&lt;/a&gt;\n\n\n\nSubtittles included                      : Romanian, [English subs Hardcoded for\n                                           Non-English Parts]\n\n\n\nPlease seed at least 1,5:1. This way this torrent has a chance to survive !\n\n\n\nThanks. Enjoy !!\n","torrent":{"xt":"urn:btih:9b1df7b3a1efabf641492ebfe7a81572c27bcce3","amp;dn":"Iron+Sky+%5B2012%5D+Limited+720p+BRRip+H264+AC3+-+CODY","amp;tr":["udp%3A%2F%2Ftracker.openbittorrent.com%3A80","udp%3A%2F%2Fopen.demonii.com%3A1337","udp%3A%2F%2Ftracker.coppersurfer.tk%3A6969","udp%3A%2F%2Fexodus.desync.com%3A6969"],"infoHash":"9b1df7b3a1efabf641492ebfe7a81572c27bcce3","infoHashBuffer":{"type":"Buffer","data":[155,29,247,179,161,239,171,246,65,73,46,191,231,168,21,114,194,123,204,227]},"announce":[],"urlList":[]}}